<svg xmlns="http://www.w3.org/2000/svg" viewBox="0 0 36 36">
	<g id="Group_486" transform="translate(-635 -189)">
		<g id="Group_49" transform="translate(638 191.532)">
			<g id="Group_48">
				<path id="Path_9" class="st0" d="M15.5,2.8c4.1,0,4.6,0,6.3,0.1c1,0,2,0.2,2.9,0.5c0.7,0.2,1.3,0.6,1.8,1.2
					c0.5,0.5,0.9,1.1,1.2,1.8c0.3,0.9,0.5,1.9,0.5,2.9c0.1,1.6,0.1,2.1,0.1,6.3s0,4.6-0.1,6.3c0,1-0.2,2-0.5,2.9
					c-0.2,0.7-0.6,1.3-1.2,1.8c-0.5,0.5-1.1,0.9-1.8,1.2c-0.9,0.3-1.9,0.5-2.9,0.5c-1.6,0.1-2.1,0.1-6.3,0.1s-4.6,0-6.3-0.1
					c-1,0-2-0.2-2.9-0.5c-0.7-0.2-1.3-0.6-1.8-1.2c-0.5-0.5-0.9-1.1-1.2-1.8c-0.3-0.9-0.5-1.9-0.5-2.9c-0.1-1.6-0.1-2.1-0.1-6.3
					s0-4.6,0.1-6.3c0-1,0.2-2,0.5-2.9c0.2-0.7,0.6-1.3,1.2-1.8c0.5-0.5,1.1-0.9,1.8-1.2c0.9-0.3,1.9-0.5,2.9-0.5
					C10.9,2.8,11.4,2.8,15.5,2.8 M15.5,0c-4.2,0-4.7,0-6.4,0.1c-1.3,0-2.6,0.3-3.8,0.7c-1,0.4-2,1-2.7,1.8C1.8,3.4,1.2,4.3,0.8,5.3
					C0.4,6.6,0.1,7.8,0.1,9.1C0,10.8,0,11.3,0,15.5s0,4.7,0.1,6.4c0,1.3,0.3,2.6,0.7,3.8c0.4,1,1,2,1.8,2.7c0.8,0.8,1.7,1.4,2.7,1.8
					c1.2,0.5,2.5,0.7,3.8,0.7c1.7,0.1,2.2,0.1,6.4,0.1s4.7,0,6.4-0.1c1.3,0,2.6-0.3,3.8-0.7c1-0.4,2-1,2.7-1.8
					c0.8-0.8,1.4-1.7,1.8-2.7c0.5-1.2,0.7-2.5,0.7-3.8c0.1-1.7,0.1-2.2,0.1-6.4s0-4.7-0.1-6.4c0-1.3-0.3-2.6-0.7-3.8
					c-0.4-1-1-2-1.8-2.7c-0.8-0.8-1.7-1.4-2.7-1.8c-1.2-0.5-2.5-0.7-3.8-0.7C20.2,0,19.7,0,15.5,0"/>
				<path id="Path_10" class="st0" d="M15.5,7.5c-4.4,0-8,3.6-8,8c0,0,0,0,0,0c0,4.4,3.6,8,8,8s8-3.6,8-8
					C23.5,11.1,19.9,7.5,15.5,7.5C15.5,7.5,15.5,7.5,15.5,7.5 M15.5,20.7c-2.9,0-5.2-2.3-5.2-5.2c0-2.9,2.3-5.2,5.2-5.2
					s5.2,2.3,5.2,5.2C20.7,18.4,18.4,20.7,15.5,20.7"/>
			</g>
			<path id="Path_11" class="st0" d="M25.6,7.2c0,1-0.8,1.9-1.9,1.9l0,0c-1,0-1.9-0.8-1.9-1.9l0,0c0-1,0.8-1.9,1.9-1.9c0,0,0,0,0,0
				C24.8,5.4,25.6,6.2,25.6,7.2C25.6,7.2,25.6,7.2,25.6,7.2"/>
		</g>
	</g>
</svg>
