<svg xmlns="http://www.w3.org/2000/svg" viewBox="0 0 36 36">
	<path class="st0" d="M34.9,7.4c-1.3,0.6-2.6,0.9-4,1.1c1.5-0.9,2.6-2.3,3.1-3.9C32.6,5.5,31,6,29.5,6.3c-2.7-2.8-7.1-3-9.9-0.3
		c-1.8,1.7-2.6,4.3-2,6.7C11.9,12.5,6.6,9.8,3,5.4c-1.9,3.2-0.9,7.3,2.2,9.4c-1.1,0-2.2-0.3-3.2-0.9V14c0,3.3,2.4,6.2,5.6,6.9
		c-1,0.3-2.1,0.3-3.2,0.1c0.9,2.9,3.6,4.8,6.6,4.9c-2.5,2-5.6,3-8.7,3c-0.6,0-1.1,0-1.7-0.1c3.2,2.1,7,3.2,10.8,3.2
		c12.9,0,20-10.7,20-20c0-0.3,0-0.6,0-0.9C32.7,10.1,33.9,8.8,34.9,7.4"/>
</svg>
