<svg xmlns="http://www.w3.org/2000/svg" viewBox="0 0 44 44">
<g id="Group_506" transform="translate(-215 -1562)">
	<g id="Group_149" transform="translate(219.046 1565)">
		<path id="Path_49" class="st0" d="M33.2,26.7l-0.1-0.1l-3.2-1.7l-1.4-0.8l-4.3-2.3l-2.5-1.3l-3.9-2.1l1.1,3.9l0.3,0.9l1.4,5.1
			l0.6,2.1l1.9,6.8l1.9-2.8l1.6-2.3l4.7,5.8l2.7-2.2L30,30.9l-0.8-1l5.8-2.3L33.2,26.7z"/>
		<path id="Path_50" class="st0" d="M18,33.5c-0.7,0-1.7-1.2-2.6-4c-0.5-1.5-0.8-3-1-4.5h3.8l-0.7-2.6H14c-0.1-1.4-0.2-2.8-0.2-4.3
			s0.1-2.9,0.2-4.3h7.9c0.1,1.4,0.2,2.8,0.2,4.3v0.4l2.5,1.4c0.1-2,0-4.1-0.1-6.1h7.9c0.8,2.8,0.8,5.8,0,8.5h-3.2l5,2.7
			c0.1-0.3,0.2-0.6,0.3-0.9c0-0.1,0-0.1,0.1-0.2c1.3-3.8,1.3-8,0-11.8c0-0.1,0-0.1-0.1-0.2c-3-9.1-12.8-14-21.9-11
			c-5.2,1.7-9.3,5.8-11,11c0,0.1,0,0.1-0.1,0.2c-1.3,3.8-1.3,8,0,11.8c0,0.1,0,0.1,0.1,0.2C3.9,31.2,10.5,36,18,36
			c1,0,2.1-0.1,3.1-0.3l-1.2-4.4C19.2,32.8,18.4,33.5,18,33.5L18,33.5z M31.4,11.2h-7.2c-0.3-2.8-1.1-5.5-2.3-8
			C26,4.4,29.5,7.3,31.4,11.2z M15.3,6.7c0.9-2.8,2-4,2.6-4s1.7,1.2,2.6,4c0.5,1.5,0.8,3,1,4.5h-7.3C14.5,9.7,14.9,8.2,15.3,6.7z
			 M14,3.2c-1.2,2.5-2,5.2-2.3,8H4.5C6.4,7.3,9.9,4.4,14,3.2z M3,18.1c0-1.4,0.2-2.9,0.6-4.3h7.9c-0.2,2.8-0.2,5.7,0,8.5H3.6
			C3.2,20.9,3,19.5,3,18.1z M4.5,24.9h7.2c0.3,2.8,1.1,5.5,2.3,8C9.9,31.7,6.4,28.8,4.5,24.9z"/>
	</g>
</g>
</svg>
